<?xml version="1.0" encoding="utf-8"?>
<!-- Generator: Adobe Illustrator 24.3.0, SVG Export Plug-In . SVG Version: 6.00 Build 0)  -->
<svg version="1.1" id="Layer_1" xmlns="http://www.w3.org/2000/svg" xmlns:xlink="http://www.w3.org/1999/xlink" x="0px" y="0px"
	 viewBox="0 0 3965.7 1984.6" style="enable-background:new 0 0 3965.7 1984.6;" xml:space="preserve">
<style type="text/css">
	.st0{fill-rule:evenodd;clip-rule:evenodd;fill:#5BD2B6;}
	.st1{fill:#5BD2B6;stroke:#FFFFFF;stroke-width:0.5669;stroke-miterlimit:2.6131;}
</style>
<g id="Layer_2_1_">
	<g id="Layer_42">
	</g>
	<g id="Layer_41">
	</g>
	<g id="Layer_40">
	</g>
	<g id="Layer_39">
	</g>
	<g id="Layer_38">
	</g>
	<g id="Layer_37">
	</g>
	<g id="Layer_36">
	</g>
	<g id="Layer_35">
	</g>
	<g id="Layer_34">
	</g>
	<g id="Layer_33">
	</g>
	<g id="Layer_32">
	</g>
	<g id="Layer_31">
	</g>
	<g id="Layer_30">
	</g>
	<g id="Layer_29">
	</g>
	<g id="Layer_28">
	</g>
	<g id="Layer_27">
	</g>
	<g id="Layer_26">
	</g>
	<g id="Layer_25">
	</g>
	<g id="Layer_24">
	</g>
	<g id="Layer_23">
	</g>
	<g id="Layer_22">
	</g>
	<g id="Layer_21">
		<path class="st0" d="M2668.5,1034c-72.2,349-303.8,639.8-615.2,792.8c-228.6-112.3-414.1-298.7-525.2-527.9H1673
			c88.5,157.2,218.8,290.4,380.3,382.7c206.4-118,361.8-302.7,444.3-519.1H887.2v-128.4h1649.7L2668.5,1034L2668.5,1034z"/>
	</g>
	<g id="Layer_20">
		<path class="st0" d="M2692.2,255.8v376.9h-128.4V384.2c-340.4,0-680.8,0-1021.2,0v385H3197v128.3H1547.2h-128.9
			c-2.6-31.6-4-63.7-4-96V255.8C1840.2,255.8,2266.2,255.8,2692.2,255.8"/>
	</g>
	<g id="Layer_19">
		<rect x="3190.1" y="227.2" class="st0" width="128.4" height="1212.3"/>
	</g>
	<g id="Layer_18">
		<rect x="3190.1" y="227.2" class="st1" width="128.4" height="1212.3"/>
	</g>
	<g id="Layer_17">
		<rect x="3379.9" y="369.5" class="st0" width="128.4" height="927.7"/>
	</g>
	<g id="Layer_16">
		<rect x="3379.9" y="369.5" class="st1" width="128.4" height="927.7"/>
	</g>
	<g id="Layer_15">
		<rect x="3569.6" y="551.3" class="st0" width="128.4" height="564"/>
	</g>
	<g id="Layer_14">
		<rect x="3569.6" y="551.3" class="st1" width="128.4" height="564"/>
	</g>
	<g id="Layer_13">
		<rect x="3759.3" y="685.7" class="st0" width="128.4" height="295.2"/>
	</g>
	<g id="Layer_12">
		<rect x="3759.3" y="685.7" class="st1" width="128.4" height="295.2"/>
	</g>
	<g id="Layer_11">
		<rect x="787.9" y="227.2" class="st0" width="128.4" height="1212.3"/>
	</g>
	<g id="Layer_10">
		<rect x="787.9" y="227.2" class="st1" width="128.4" height="1212.3"/>
	</g>
	<g id="Layer_9">
		<rect x="598.2" y="369.5" class="st0" width="128.4" height="927.7"/>
	</g>
	<g id="Layer_8">
		<rect x="598.2" y="369.5" class="st1" width="128.4" height="927.7"/>
	</g>
	<g id="Layer_7">
		<rect x="408.4" y="551.3" class="st0" width="128.4" height="564"/>
	</g>
	<g id="Layer_6">
		<rect x="408.4" y="551.3" class="st1" width="128.4" height="564"/>
	</g>
	<g id="Layer_5">
		<rect x="218.7" y="685.7" class="st0" width="128.4" height="295.2"/>
	</g>
	<g id="Layer_4">
		<rect x="218.7" y="685.7" class="st1" width="128.4" height="295.2"/>
	</g>
	<g id="Layer_3">
	</g>
</g>
</svg>
